<svg width="1102" height="899" viewBox="0 0 1102 899" fill="none" xmlns="http://www.w3.org/2000/svg">
<g id="Frame 1" clip-path="url(#clip0_15_19)">
<g id="Frame 2">
<path id="Vector 1" d="M644.722 527.475L568 679C565.283 683.975 552.492 686.581 551.5 681L486 507C485.13 502.102 474.356 497.327 471 501L391.5 553C386.5 556 387 559 393.5 559L426 553C430 553 434 559 434 562.5L526.5 824.5C529.5 836 538.5 844.5 551.5 831L644.873 631.482C646.93 627.636 652.273 627.2 654.926 630.662L785.042 800.424C788.497 804.932 795.7 802.561 795.803 796.882L779 176.5L763.5 663.5C763.096 669.077 759.655 670.845 756.364 666.323L654.839 526.82C652.248 523.26 646.832 523.611 644.722 527.475Z" fill="url(#paint0_linear_15_19)"/>
<path id="Vector" d="M715.327 551.011C730.16 534.616 732.234 516.681 731.237 494.49C730.241 472.3 720.557 451.412 704.314 436.425C688.072 421.437 666.603 413.575 644.631 414.569C622.656 415.564 601.979 425.333 587.147 441.727C572.314 458.121 564.54 479.799 565.537 501.989C566.533 524.179 574.44 544.831 590.682 559.818C594.414 563.262 597.105 564.885 600.196 566.308C604.917 568.481 610.571 566.538 613.245 562.051L638.839 519.107C642.409 513.119 650.715 512.357 655.3 517.598L690.539 557.878C694.372 562.259 701.075 562.6 705.71 559.103C709.323 556.377 712.585 554.041 715.327 551.011Z" fill="url(#paint1_linear_15_19)"/>
</g>
</g>
<defs>
<linearGradient id="paint0_linear_15_19" x1="435" y1="485.5" x2="826.506" y2="778.967" gradientUnits="userSpaceOnUse">
<stop offset="0.00236507" stop-color="#003FEC"/>
<stop offset="1" stop-color="#AD08EE"/>
</linearGradient>
<linearGradient id="paint1_linear_15_19" x1="601.874" y1="425.298" x2="708.899" y2="519.029" gradientUnits="userSpaceOnUse">
<stop stop-color="#003FEC"/>
<stop offset="1" stop-color="#AD08EE"/>
</linearGradient>
<clipPath id="clip0_15_19">
<rect width="1102" height="899" fill="white"/>
</clipPath>
</defs>
</svg>
